<svg width="116" height="26" viewBox="0 0 116 26" fill="none" xmlns="http://www.w3.org/2000/svg">
<path d="M14.7746 5.808V0.912H14.3906C14.3426 1.136 14.2626 1.28 14.1506 1.344C14.0386 1.392 13.8706 1.416 13.6466 1.416C13.4386 1.416 13.1826 1.368 12.8786 1.272C12.5746 1.176 12.2306 1.08 11.8466 0.983999C11.4786 0.871999 11.0706 0.767999 10.6226 0.671999C10.1906 0.575999 9.71859 0.527999 9.20659 0.527999C8.18259 0.527999 7.13459 0.743999 6.06259 1.176C5.00659 1.592 4.04659 2.192 3.18259 2.976C2.31859 3.76 1.60659 4.704 1.04659 5.808C0.502592 6.912 0.230592 8.144 0.230592 9.504C0.230592 10.752 0.478592 11.912 0.974592 12.984C1.47059 14.056 2.12659 14.992 2.94259 15.792C3.77459 16.576 4.73459 17.2 5.82259 17.664C6.91059 18.112 8.03859 18.336 9.20659 18.336C9.71859 18.336 10.2066 18.288 10.6706 18.192C11.1346 18.112 11.5586 18.024 11.9426 17.928C12.3426 17.816 12.6946 17.72 12.9986 17.64C13.3026 17.544 13.5506 17.496 13.7426 17.496C13.9666 17.496 14.1346 17.536 14.2466 17.616C14.3586 17.68 14.4546 17.808 14.5346 18H14.9186V12.912H14.5346C14.3906 13.568 14.1666 14.2 13.8626 14.808C13.5586 15.416 13.1826 15.96 12.7346 16.44C12.2866 16.904 11.7666 17.28 11.1746 17.568C10.5986 17.856 9.95059 18 9.23059 18C8.33459 18 7.55859 17.872 6.90259 17.616C6.26259 17.36 5.73459 16.912 5.31859 16.272C4.91859 15.632 4.62259 14.768 4.43059 13.68C4.23859 12.592 4.14259 11.216 4.14259 9.552C4.14259 8.288 4.19059 7.128 4.28659 6.072C4.38259 5 4.59859 4.08 4.93459 3.312C5.28659 2.544 5.79859 1.944 6.47059 1.512C7.14259 1.08 8.06259 0.863999 9.23059 0.863999C10.0946 0.863999 10.8146 1.024 11.3906 1.344C11.9826 1.648 12.4706 2.048 12.8546 2.544C13.2546 3.024 13.5746 3.56 13.8146 4.152C14.0706 4.728 14.2866 5.28 14.4626 5.808H14.7746ZM23.6469 12.048V15.216C23.6469 15.68 23.5989 16.08 23.5029 16.416C23.4069 16.736 23.2789 17 23.1189 17.208C22.9589 17.4 22.7749 17.544 22.5669 17.64C22.3749 17.736 22.1749 17.784 21.9669 17.784C21.5989 17.784 21.3109 17.704 21.1029 17.544C20.8949 17.368 20.7349 17.16 20.6229 16.92C20.5269 16.68 20.4629 16.432 20.4309 16.176C20.4149 15.92 20.4069 15.696 20.4069 15.504C20.4069 15.024 20.4789 14.632 20.6229 14.328C20.7829 14.024 20.9829 13.768 21.2229 13.56C21.4629 13.352 21.7349 13.184 22.0389 13.056C22.3429 12.912 22.6469 12.768 22.9509 12.624C23.1749 12.512 23.3269 12.416 23.4069 12.336C23.5029 12.24 23.5669 12.144 23.5989 12.048H23.6469ZM28.4949 17.616L28.2789 17.4C28.1509 17.544 28.0149 17.656 27.8709 17.736C27.7429 17.816 27.5749 17.856 27.3669 17.856C27.0149 17.856 26.7909 17.744 26.6949 17.52C26.6149 17.28 26.5749 17.008 26.5749 16.704V10.752C26.5749 10.08 26.4549 9.528 26.2149 9.096C25.9909 8.648 25.6789 8.296 25.2789 8.04C24.8949 7.784 24.4309 7.608 23.8869 7.512C23.3589 7.416 22.7909 7.368 22.1829 7.368C21.6549 7.368 21.1429 7.424 20.6469 7.536C20.1669 7.648 19.7349 7.816 19.3509 8.04C18.9669 8.248 18.6549 8.52 18.4149 8.856C18.1909 9.176 18.0789 9.544 18.0789 9.96C18.0789 10.232 18.1189 10.448 18.1989 10.608C18.2949 10.768 18.4069 10.896 18.5349 10.992C18.6629 11.072 18.8069 11.128 18.9669 11.16C19.1429 11.176 19.3109 11.184 19.4709 11.184C19.5829 11.184 19.7189 11.184 19.8789 11.184C20.0549 11.168 20.2149 11.128 20.3589 11.064C20.5189 11 20.6549 10.904 20.7669 10.776C20.8789 10.632 20.9349 10.44 20.9349 10.2C20.9349 10.152 20.9269 10.064 20.9109 9.936C20.8949 9.808 20.8789 9.672 20.8629 9.528C20.8469 9.384 20.8309 9.256 20.8149 9.144C20.7989 9.016 20.7909 8.928 20.7909 8.88C20.7909 8.432 20.9269 8.128 21.1989 7.968C21.4709 7.792 21.7909 7.704 22.1589 7.704C22.7349 7.704 23.1269 7.88 23.3349 8.232C23.5429 8.584 23.6469 8.976 23.6469 9.408V10.872C23.6469 11.176 23.5989 11.424 23.5029 11.616C23.4229 11.808 23.2709 11.984 23.0469 12.144C22.8229 12.288 22.5029 12.432 22.0869 12.576C21.6869 12.704 21.1589 12.864 20.5029 13.056C20.1029 13.184 19.7109 13.32 19.3269 13.464C18.9589 13.592 18.6229 13.768 18.3189 13.992C18.0309 14.2 17.7909 14.464 17.5989 14.784C17.4229 15.088 17.3349 15.472 17.3349 15.936C17.3349 16.384 17.4389 16.768 17.6469 17.088C17.8549 17.392 18.1269 17.632 18.4629 17.808C18.7989 17.984 19.1669 18.112 19.5669 18.192C19.9669 18.272 20.3589 18.312 20.7429 18.312C21.5909 18.312 22.2389 18.2 22.6869 17.976C23.1349 17.752 23.4869 17.32 23.7429 16.68H23.7909C23.8869 17.192 24.1269 17.592 24.5109 17.88C24.9109 18.168 25.5189 18.312 26.3349 18.312C26.7029 18.312 27.0949 18.28 27.5109 18.216C27.9429 18.152 28.2709 17.952 28.4949 17.616ZM31.1962 4.608V7.704H29.5882V8.04H31.1962V15.432C31.1962 15.72 31.2122 16.032 31.2442 16.368C31.2762 16.704 31.3962 17.016 31.6042 17.304C31.8282 17.592 32.1642 17.832 32.6122 18.024C33.0762 18.216 33.7242 18.312 34.5562 18.312C34.8602 18.312 35.1802 18.28 35.5162 18.216C35.8522 18.168 36.1642 18.056 36.4522 17.88C36.7562 17.704 37.0202 17.456 37.2442 17.136C37.4842 16.8 37.6522 16.36 37.7482 15.816L37.3882 15.744C37.3242 15.984 37.2362 16.232 37.1242 16.488C37.0282 16.744 36.9002 16.976 36.7402 17.184C36.5802 17.376 36.3882 17.536 36.1642 17.664C35.9562 17.792 35.7002 17.856 35.3962 17.856C35.1242 17.856 34.9002 17.808 34.7242 17.712C34.5642 17.616 34.4362 17.488 34.3402 17.328C34.2602 17.152 34.2042 16.96 34.1722 16.752C34.1402 16.544 34.1242 16.32 34.1242 16.08V8.04H36.9322V7.704H34.1242V4.608C33.8842 4.704 33.6362 4.784 33.3802 4.848C33.1402 4.912 32.9002 4.944 32.6602 4.944C32.4202 4.944 32.1722 4.912 31.9162 4.848C31.6762 4.784 31.4362 4.704 31.1962 4.608ZM45.575 11.64H41.735C41.751 11.224 41.775 10.792 41.807 10.344C41.855 9.88 41.951 9.456 42.095 9.072C42.239 8.672 42.455 8.344 42.743 8.088C43.047 7.832 43.471 7.704 44.015 7.704C44.399 7.704 44.695 7.792 44.903 7.968C45.127 8.144 45.287 8.36 45.383 8.616C45.479 8.872 45.535 9.128 45.551 9.384C45.567 9.64 45.575 9.856 45.575 10.032V11.64ZM41.735 11.976H48.815C48.815 11.16 48.671 10.464 48.383 9.888C48.095 9.296 47.727 8.816 47.279 8.448C46.831 8.08 46.327 7.808 45.767 7.632C45.207 7.456 44.647 7.368 44.087 7.368C43.303 7.368 42.567 7.528 41.879 7.848C41.207 8.152 40.615 8.56 40.103 9.072C39.607 9.568 39.215 10.144 38.927 10.8C38.639 11.456 38.495 12.128 38.495 12.816C38.495 13.68 38.647 14.456 38.951 15.144C39.255 15.816 39.671 16.392 40.199 16.872C40.743 17.336 41.375 17.696 42.095 17.952C42.815 18.192 43.591 18.312 44.423 18.312C45.127 18.312 45.727 18.208 46.223 18C46.719 17.808 47.135 17.568 47.471 17.28C47.807 16.976 48.071 16.656 48.263 16.32C48.455 15.968 48.591 15.64 48.671 15.336L48.335 15.216C48.319 15.36 48.239 15.584 48.095 15.888C47.967 16.192 47.759 16.504 47.471 16.824C47.199 17.128 46.839 17.4 46.391 17.64C45.959 17.88 45.423 18 44.783 18C44.063 18 43.503 17.848 43.103 17.544C42.703 17.24 42.399 16.856 42.191 16.392C41.983 15.912 41.855 15.384 41.807 14.808C41.759 14.216 41.735 13.632 41.735 13.056V11.976ZM53.015 21.744C53.015 21.104 53.143 20.592 53.399 20.208C53.671 19.824 54.047 19.44 54.527 19.056H57.023C57.263 19.056 57.527 19.088 57.815 19.152C58.103 19.216 58.367 19.336 58.607 19.512C58.847 19.688 59.047 19.92 59.207 20.208C59.367 20.512 59.447 20.904 59.447 21.384C59.447 21.864 59.351 22.304 59.159 22.704C58.967 23.104 58.711 23.448 58.391 23.736C58.087 24.024 57.727 24.248 57.311 24.408C56.895 24.568 56.455 24.648 55.991 24.648C55.383 24.648 54.887 24.552 54.503 24.36C54.119 24.168 53.815 23.92 53.591 23.616C53.367 23.328 53.215 23.016 53.135 22.68C53.055 22.344 53.015 22.032 53.015 21.744ZM55.799 13.992C55.527 13.992 55.271 13.96 55.031 13.896C54.791 13.832 54.583 13.688 54.407 13.464C54.247 13.224 54.119 12.88 54.023 12.432C53.927 11.984 53.879 11.384 53.879 10.632C53.879 10.264 53.903 9.904 53.951 9.552C53.999 9.2 54.087 8.888 54.215 8.616C54.359 8.344 54.559 8.128 54.815 7.968C55.071 7.792 55.399 7.704 55.799 7.704C56.231 7.704 56.567 7.784 56.807 7.944C57.047 8.104 57.231 8.328 57.359 8.616C57.487 8.904 57.567 9.248 57.599 9.648C57.631 10.032 57.647 10.456 57.647 10.92C57.647 11.576 57.599 12.112 57.503 12.528C57.423 12.928 57.303 13.24 57.143 13.464C56.983 13.672 56.791 13.816 56.567 13.896C56.343 13.96 56.087 13.992 55.799 13.992ZM56.519 16.296H53.879C53.335 16.296 52.903 16.2 52.583 16.008C52.263 15.816 52.103 15.52 52.103 15.12C52.103 14.944 52.143 14.752 52.223 14.544C52.303 14.32 52.575 14.056 53.039 13.752C53.359 13.88 53.767 14.008 54.263 14.136C54.759 14.264 55.327 14.328 55.967 14.328C56.767 14.328 57.439 14.232 57.983 14.04C58.527 13.832 58.967 13.568 59.303 13.248C59.655 12.928 59.903 12.576 60.047 12.192C60.207 11.792 60.287 11.392 60.287 10.992C60.287 10.336 60.175 9.84 59.951 9.504C59.727 9.152 59.519 8.872 59.327 8.664C59.647 8.44 59.871 8.296 59.999 8.232C60.127 8.152 60.239 8.112 60.335 8.112C60.511 8.112 60.615 8.168 60.647 8.28C60.679 8.392 60.711 8.56 60.743 8.784C60.759 8.848 60.775 8.936 60.791 9.048C60.823 9.144 60.871 9.24 60.935 9.336C61.015 9.416 61.119 9.488 61.247 9.552C61.391 9.616 61.575 9.648 61.799 9.648C62.119 9.648 62.375 9.56 62.567 9.384C62.759 9.192 62.855 8.936 62.855 8.616C62.855 8.248 62.735 7.952 62.495 7.728C62.271 7.488 61.927 7.368 61.463 7.368C60.935 7.368 60.511 7.464 60.191 7.656C59.871 7.832 59.511 8.104 59.111 8.472C58.743 8.184 58.295 7.928 57.767 7.704C57.255 7.48 56.639 7.368 55.919 7.368C55.199 7.368 54.543 7.464 53.951 7.656C53.375 7.848 52.887 8.112 52.487 8.448C52.087 8.768 51.775 9.152 51.551 9.6C51.343 10.032 51.239 10.496 51.239 10.992C51.239 11.344 51.287 11.656 51.383 11.928C51.495 12.184 51.623 12.416 51.767 12.624C51.927 12.816 52.095 12.992 52.271 13.152C52.447 13.296 52.607 13.424 52.751 13.536C52.255 13.808 51.855 14.096 51.551 14.4C51.263 14.704 51.047 15 50.903 15.288C50.759 15.56 50.663 15.8 50.615 16.008C50.583 16.216 50.567 16.36 50.567 16.44C50.567 16.936 50.687 17.352 50.927 17.688C51.167 18.024 51.463 18.288 51.815 18.48C52.167 18.672 52.543 18.808 52.943 18.888C53.359 18.968 53.727 19.008 54.047 19.008V19.056C53.679 19.152 53.303 19.288 52.919 19.464C52.551 19.64 52.207 19.848 51.887 20.088C51.583 20.344 51.335 20.64 51.143 20.976C50.951 21.312 50.855 21.696 50.855 22.128C50.855 22.352 50.903 22.624 50.999 22.944C51.095 23.28 51.303 23.6 51.623 23.904C51.943 24.224 52.399 24.496 52.991 24.72C53.599 24.944 54.407 25.056 55.415 25.056C56.311 25.056 57.103 24.912 57.791 24.624C58.495 24.336 59.095 23.96 59.591 23.496C60.087 23.032 60.463 22.504 60.719 21.912C60.975 21.32 61.103 20.712 61.103 20.088C61.103 19.352 60.975 18.736 60.719 18.24C60.463 17.76 60.127 17.376 59.711 17.088C59.295 16.8 58.807 16.6 58.247 16.488C57.703 16.36 57.127 16.296 56.519 16.296ZM69.2177 18C68.5937 18 68.1057 17.856 67.7537 17.568C67.4017 17.264 67.1377 16.872 66.9617 16.392C66.8017 15.912 66.6977 15.36 66.6497 14.736C66.6177 14.112 66.6017 13.48 66.6017 12.84C66.6017 12.2 66.6177 11.576 66.6497 10.968C66.6977 10.344 66.8017 9.792 66.9617 9.312C67.1377 8.832 67.4017 8.448 67.7537 8.16C68.1057 7.856 68.5937 7.704 69.2177 7.704C69.8417 7.704 70.3297 7.856 70.6817 8.16C71.0337 8.448 71.2897 8.832 71.4497 9.312C71.6257 9.792 71.7297 10.344 71.7617 10.968C71.8097 11.576 71.8337 12.2 71.8337 12.84C71.8337 13.48 71.8097 14.112 71.7617 14.736C71.7297 15.36 71.6257 15.912 71.4497 16.392C71.2897 16.872 71.0337 17.264 70.6817 17.568C70.3297 17.856 69.8417 18 69.2177 18ZM69.2177 7.368C68.3857 7.368 67.6097 7.52 66.8897 7.824C66.1857 8.112 65.5697 8.504 65.0417 9C64.5137 9.496 64.0977 10.08 63.7937 10.752C63.5057 11.408 63.3617 12.104 63.3617 12.84C63.3617 13.592 63.5057 14.304 63.7937 14.976C64.0977 15.632 64.5137 16.208 65.0417 16.704C65.5697 17.2 66.1857 17.592 66.8897 17.88C67.6097 18.168 68.3857 18.312 69.2177 18.312C70.0497 18.312 70.8177 18.168 71.5217 17.88C72.2417 17.592 72.8657 17.2 73.3937 16.704C73.9217 16.208 74.3297 15.632 74.6177 14.976C74.9217 14.304 75.0737 13.592 75.0737 12.84C75.0737 12.104 74.9217 11.408 74.6177 10.752C74.3297 10.08 73.9217 9.496 73.3937 9C72.8657 8.504 72.2417 8.112 71.5217 7.824C70.8177 7.52 70.0497 7.368 69.2177 7.368ZM76.8656 7.704V8.04H78.4256V17.664H76.8656V18H83.2496V17.664H81.3536V11.52C81.3536 11.008 81.4256 10.552 81.5696 10.152C81.7296 9.736 81.9136 9.384 82.1216 9.096C82.3296 8.808 82.5536 8.592 82.7936 8.448C83.0336 8.288 83.2336 8.208 83.3936 8.208C83.5376 8.208 83.6416 8.24 83.7056 8.304C83.7856 8.352 83.8416 8.416 83.8736 8.496C83.9056 8.56 83.9216 8.624 83.9216 8.688C83.9376 8.752 83.9456 8.784 83.9456 8.784C83.9456 8.8 83.9376 8.864 83.9216 8.976C83.9056 9.088 83.8816 9.216 83.8496 9.36C83.8336 9.488 83.8176 9.616 83.8016 9.744C83.7856 9.856 83.7776 9.936 83.7776 9.984C83.7776 10.4 83.9296 10.688 84.2336 10.848C84.5376 10.992 84.8736 11.064 85.2416 11.064C85.7536 11.064 86.1216 10.928 86.3456 10.656C86.5856 10.384 86.7056 10.008 86.7056 9.528C86.7056 8.888 86.4976 8.392 86.0816 8.04C85.6656 7.672 85.1216 7.488 84.4496 7.488C83.6496 7.488 83.0016 7.712 82.5056 8.16C82.0256 8.592 81.6416 9.112 81.3536 9.72H81.3056V7.704H76.8656ZM88.7777 2.544C88.7777 3.008 88.9457 3.408 89.2817 3.744C89.6177 4.08 90.0177 4.248 90.4817 4.248C90.9457 4.248 91.3457 4.08 91.6817 3.744C92.0177 3.408 92.1857 3.008 92.1857 2.544C92.1857 2.08 92.0177 1.68 91.6817 1.344C91.3457 1.008 90.9457 0.839999 90.4817 0.839999C90.0177 0.839999 89.6177 1.008 89.2817 1.344C88.9457 1.68 88.7777 2.08 88.7777 2.544ZM87.4097 7.704V8.04H89.0177V17.664H87.4097V18H93.5537V17.664H91.9457V7.704H87.4097ZM102.036 11.64H98.196C98.212 11.224 98.236 10.792 98.268 10.344C98.316 9.88 98.412 9.456 98.556 9.072C98.7 8.672 98.916 8.344 99.204 8.088C99.508 7.832 99.932 7.704 100.476 7.704C100.86 7.704 101.156 7.792 101.364 7.968C101.588 8.144 101.748 8.36 101.844 8.616C101.94 8.872 101.996 9.128 102.012 9.384C102.028 9.64 102.036 9.856 102.036 10.032V11.64ZM98.196 11.976H105.276C105.276 11.16 105.132 10.464 104.844 9.888C104.556 9.296 104.188 8.816 103.74 8.448C103.292 8.08 102.788 7.808 102.228 7.632C101.668 7.456 101.108 7.368 100.548 7.368C99.764 7.368 99.028 7.528 98.34 7.848C97.668 8.152 97.076 8.56 96.564 9.072C96.068 9.568 95.676 10.144 95.388 10.8C95.1 11.456 94.956 12.128 94.956 12.816C94.956 13.68 95.108 14.456 95.412 15.144C95.716 15.816 96.132 16.392 96.66 16.872C97.204 17.336 97.836 17.696 98.556 17.952C99.276 18.192 100.052 18.312 100.884 18.312C101.588 18.312 102.188 18.208 102.684 18C103.18 17.808 103.596 17.568 103.932 17.28C104.268 16.976 104.532 16.656 104.724 16.32C104.916 15.968 105.052 15.64 105.132 15.336L104.796 15.216C104.78 15.36 104.7 15.584 104.556 15.888C104.428 16.192 104.22 16.504 103.932 16.824C103.66 17.128 103.3 17.4 102.852 17.64C102.42 17.88 101.884 18 101.244 18C100.524 18 99.964 17.848 99.564 17.544C99.164 17.24 98.86 16.856 98.652 16.392C98.444 15.912 98.316 15.384 98.268 14.808C98.22 14.216 98.196 13.632 98.196 13.056V11.976ZM107.172 14.52V18H107.508C107.556 17.872 107.604 17.784 107.652 17.736C107.716 17.688 107.812 17.664 107.94 17.664C108.084 17.664 108.284 17.696 108.54 17.76C108.796 17.824 109.076 17.904 109.38 18C109.7 18.08 110.028 18.152 110.364 18.216C110.7 18.28 111.012 18.312 111.3 18.312C111.828 18.312 112.34 18.232 112.836 18.072C113.332 17.912 113.764 17.688 114.132 17.4C114.516 17.096 114.82 16.736 115.044 16.32C115.284 15.888 115.404 15.408 115.404 14.88C115.404 14.112 115.18 13.48 114.732 12.984C114.284 12.488 113.628 12.088 112.764 11.784L110.724 11.088C110.324 10.944 110.004 10.8 109.764 10.656C109.524 10.496 109.348 10.344 109.236 10.2C109.124 10.04 109.052 9.888 109.02 9.744C108.988 9.6 108.972 9.472 108.972 9.36C108.972 8.816 109.188 8.408 109.62 8.136C110.068 7.848 110.556 7.704 111.084 7.704C111.58 7.704 111.996 7.784 112.332 7.944C112.668 8.088 112.948 8.296 113.172 8.568C113.412 8.824 113.612 9.128 113.772 9.48C113.948 9.832 114.116 10.2 114.276 10.584H114.588V7.656H114.252C114.22 7.736 114.18 7.808 114.132 7.872C114.084 7.936 113.972 7.968 113.796 7.968C113.7 7.968 113.564 7.936 113.388 7.872C113.228 7.808 113.036 7.744 112.812 7.68C112.604 7.6 112.364 7.528 112.092 7.464C111.836 7.4 111.556 7.368 111.252 7.368C110.676 7.368 110.14 7.464 109.644 7.656C109.164 7.832 108.748 8.08 108.396 8.4C108.06 8.704 107.796 9.064 107.604 9.48C107.412 9.896 107.316 10.336 107.316 10.8C107.316 11.232 107.388 11.608 107.532 11.928C107.676 12.232 107.852 12.496 108.06 12.72C108.284 12.944 108.524 13.128 108.78 13.272C109.036 13.4 109.276 13.504 109.5 13.584L111.444 14.304C111.876 14.464 112.212 14.624 112.452 14.784C112.708 14.928 112.9 15.08 113.028 15.24C113.156 15.4 113.236 15.56 113.268 15.72C113.316 15.864 113.34 16.008 113.34 16.152C113.34 16.616 113.252 16.976 113.076 17.232C112.916 17.472 112.716 17.656 112.476 17.784C112.252 17.896 112.02 17.96 111.78 17.976C111.54 17.992 111.348 18 111.204 18C110.644 18 110.172 17.904 109.788 17.712C109.404 17.504 109.076 17.24 108.804 16.92C108.532 16.6 108.292 16.232 108.084 15.816C107.892 15.4 107.7 14.968 107.508 14.52H107.172Z" fill="#2A2A2A"/>
</svg>
