<svg width="42" height="42" viewBox="0 0 42 42" fill="none" xmlns="http://www.w3.org/2000/svg">
<path d="M41.8213 20.9784C41.8213 20.5005 41.5864 20.0804 41.2289 19.8169L41.2365 19.8039L36.2015 16.8971L39.0997 11.8772L39.09 11.8713C39.1815 11.6644 39.223 11.4389 39.2111 11.2129C39.1992 10.987 39.1342 10.7671 39.0214 10.571C38.9078 10.3751 38.7495 10.2087 38.5595 10.0854C38.3695 9.96211 38.1531 9.88538 37.9279 9.86142V9.84738H32.1132V4.0494H32.1013C32.0771 3.82446 32.0002 3.60839 31.877 3.41869C31.7537 3.22899 31.5875 3.071 31.3917 2.95752C31.1953 2.84438 30.975 2.77929 30.7486 2.76755C30.5222 2.75582 30.2963 2.79779 30.0893 2.89002L30.0822 2.8776L24.9625 5.83356L22.1275 0.922802L22.1172 0.928742C21.9838 0.746076 21.8092 0.597407 21.6076 0.494774C21.406 0.39214 21.183 0.338427 20.9568 0.337982C20.4789 0.337982 20.0582 0.572882 19.7952 0.930362L19.7823 0.922802L16.9003 5.91456L11.9377 3.04932L11.9318 3.05958C11.7249 2.96804 11.4993 2.92654 11.2734 2.93846C11.0475 2.95037 10.8275 3.01536 10.6314 3.12816C10.4354 3.2417 10.2689 3.39991 10.1455 3.58992C10.0221 3.77993 9.94531 3.99638 9.92134 4.22166H9.90676V9.98562H4.17628V9.99696C3.95134 10.0212 3.73527 10.098 3.54556 10.2213C3.35586 10.3446 3.19787 10.5108 3.0844 10.7065C2.97155 10.9028 2.90658 11.123 2.89476 11.3491C2.88294 11.5752 2.9246 11.8009 3.01636 12.0079L3.00394 12.0155L5.83678 16.9225L0.764019 19.8514L0.769959 19.8617C0.587293 19.9951 0.438625 20.1698 0.335991 20.3714C0.233358 20.573 0.179644 20.7959 0.179199 21.0221C0.179199 21.5 0.414099 21.9207 0.771579 22.1837L0.764019 22.1966L5.79898 25.1035L2.9008 30.1233L2.91052 30.1287C2.81898 30.3356 2.77748 30.5611 2.78939 30.7871C2.80131 31.013 2.8663 31.2329 2.9791 31.429C3.09273 31.625 3.25098 31.7913 3.44098 31.9146C3.63098 32.0379 3.84737 32.1146 4.0726 32.1386V32.1532H9.88678V37.9506H9.89866C9.94834 38.3912 10.1951 38.8038 10.6082 39.0425C10.8047 39.1555 11.025 39.2205 11.2514 39.2323C11.4777 39.244 11.7036 39.2021 11.9107 39.11L11.9177 39.1224L17.0375 36.1664L19.8725 41.0772L19.8827 41.0713C20.0162 41.2539 20.1908 41.4026 20.3924 41.5052C20.594 41.6079 20.817 41.6616 21.0432 41.662C21.5211 41.662 21.9417 41.4271 22.2047 41.0702L22.2171 41.0772L25.0991 36.0854L30.0623 38.9507L30.0682 38.9404C30.2751 39.032 30.5006 39.0735 30.7266 39.0615C30.9525 39.0496 31.1724 38.9846 31.3685 38.8718C31.5646 38.7584 31.7312 38.6002 31.8546 38.4102C31.978 38.2201 32.0547 38.0037 32.0786 37.7783H32.0932V32.0149H37.8242V32.0036C38.0492 31.9794 38.2652 31.9025 38.4549 31.7793C38.6446 31.656 38.8026 31.4897 38.9161 31.294C39.0289 31.0977 39.0939 30.8776 39.1057 30.6515C39.1176 30.4253 39.0759 30.1996 38.9841 29.9926L38.9966 29.9856L36.1637 25.0786L41.2365 22.1497L41.2305 22.1394C41.4132 22.0058 41.5619 21.8311 41.6645 21.6294C41.7671 21.4277 41.8209 21.2047 41.8213 20.9784ZM14.27 29.2064C13.0658 29.9019 11.9739 29.9969 11.0456 29.7475L11.1758 28.2911C11.8788 28.4947 12.7877 28.4936 13.6463 27.9973C14.3844 27.5713 14.5416 27.0442 14.3315 26.6808C13.7057 25.5976 10.5558 28.425 9.20206 26.0809C8.60374 25.0441 9.00388 23.6665 10.4711 22.8198C11.4609 22.2479 12.4556 22.073 13.4011 22.2863L13.2342 23.7027C12.4604 23.5277 11.6639 23.7005 11.0289 24.0667C10.4684 24.3907 10.2907 24.8167 10.5067 25.1909C11.0732 26.1716 14.2678 23.4435 15.6102 25.7682C16.2685 26.9071 15.9429 28.2414 14.27 29.2064ZM21.7992 24.7103L20.798 23.8814L18.1266 25.4237L18.3432 26.7056L16.8393 27.5734L15.6432 19.9578L17.3058 18.9982L23.3031 23.8426L21.7992 24.7103ZM23.8258 23.5407L20.2289 17.3102L21.5648 16.5385L24.4878 21.601L27.122 20.0804L27.7964 21.2484L23.8258 23.5407ZM28.6923 20.7311L25.0953 14.5011L29.5039 11.955L30.1778 13.1225L27.096 14.9023L27.851 16.2102L30.8674 14.4682L31.5413 15.6356L28.5249 17.3771L29.3446 18.7973L32.4269 17.0175L33.1014 18.185L28.6923 20.7311Z" fill="white"/>
</svg>
